<svg width="60" height="24" viewBox="0 0 60 24" fill="none" xmlns="http://www.w3.org/2000/svg">
<path d="M59.0811 8.18334H55.9129C54.3131 3.43425 49.8267 0 44.5452 0C39.1418 0 34.5648 3.59151 33.0665 8.51149C32.1187 7.88507 30.9032 7.49704 29.5399 7.49704C28.1769 7.49704 26.9617 7.88494 26.0137 8.51136C24.515 3.59138 19.9373 0.000125894 14.534 0.000125894C9.25254 0.000125894 4.76647 3.43437 3.16698 8.18346H0V10.6451H2.61581C2.56543 11.0908 2.53381 11.5421 2.53381 12.001C2.53381 18.6181 7.91707 24.0006 14.534 24.0006C21.151 24.0006 26.5349 18.618 26.5349 12.001C26.5349 11.932 26.5258 11.8653 26.5245 11.7966H26.5332C26.5332 10.9275 27.7682 9.95871 29.54 9.95871C31.3124 9.95871 32.5468 10.9275 32.5468 11.7966H32.556C32.5547 11.8652 32.5456 11.932 32.5456 12.001C32.5456 18.6181 37.9282 24.0006 44.5452 24.0006C51.1622 24.0006 56.5461 18.618 56.5461 12.001C56.5461 11.5421 56.5144 11.0908 56.464 10.6451H59.0811V8.18334ZM14.534 21.5389C9.27466 21.5389 4.99548 17.2597 4.99548 12.001C4.99548 6.74098 9.27466 2.4618 14.534 2.4618C19.794 2.4618 24.0732 6.74098 24.0732 12.001C24.0732 17.2597 19.794 21.5389 14.534 21.5389ZM44.5453 21.5389C39.2866 21.5389 35.0074 17.2597 35.0074 12.001C35.0074 6.74098 39.2866 2.4618 44.5453 2.4618C49.8053 2.4618 54.0845 6.74098 54.0845 12.001C54.0844 17.2597 49.8052 21.5389 44.5453 21.5389Z" fill="#F2F2F2"/>
</svg>
