<svg width="403" height="41" viewBox="0 0 403 41" fill="none" xmlns="http://www.w3.org/2000/svg">
            <path d="M23.4365 33H17.5545L11.9105 23.82L6.26648 33H0.758484L8.81648 20.488L1.26848 8.724H6.94648L12.1825 17.462L17.3165 8.724H22.8585L15.2425 20.76L23.4365 33ZM30.2362 8.724H37.7842C41.0255 8.724 43.4735 9.17733 45.1282 10.084C46.7829 10.9907 47.6102 12.5887 47.6102 14.878C47.6102 16.2607 47.2816 17.428 46.6242 18.38C45.9896 19.332 45.0716 19.91 43.8702 20.114V20.284C44.6862 20.4427 45.4229 20.726 46.0802 21.134C46.7376 21.542 47.2589 22.1313 47.6442 22.902C48.0296 23.6727 48.2222 24.6927 48.2222 25.962C48.2222 28.1607 47.4289 29.8833 45.8422 31.13C44.2556 32.3767 42.0796 33 39.3142 33H30.2362V8.724ZM35.3702 18.346H38.3622C39.8582 18.346 40.8895 18.108 41.4562 17.632C42.0455 17.156 42.3402 16.4647 42.3402 15.558C42.3402 14.6287 42.0002 13.96 41.3202 13.552C40.6402 13.144 39.5635 12.94 38.0902 12.94H35.3702V18.346ZM35.3702 22.426V28.75H38.7362C40.2776 28.75 41.3542 28.4553 41.9662 27.866C42.5782 27.254 42.8842 26.4493 42.8842 25.452C42.8842 24.5453 42.5669 23.82 41.9322 23.276C41.3202 22.7093 40.1982 22.426 38.5662 22.426H35.3702ZM78.852 20.828C78.852 23.344 78.4326 25.5427 77.594 27.424C76.778 29.2827 75.52 30.7333 73.82 31.776C72.12 32.8187 69.944 33.34 67.292 33.34C64.6626 33.34 62.4866 32.8187 60.764 31.776C59.064 30.7333 57.7946 29.2713 56.956 27.39C56.14 25.5087 55.732 23.31 55.732 20.794C55.732 18.278 56.14 16.0907 56.956 14.232C57.7946 12.3733 59.064 10.934 60.764 9.914C62.4866 8.87133 64.674 8.35 67.326 8.35C69.9553 8.35 72.12 8.87133 73.82 9.914C75.52 10.934 76.778 12.3847 77.594 14.266C78.4326 16.1247 78.852 18.312 78.852 20.828ZM61.138 20.828C61.138 23.3667 61.6253 25.3727 62.6 26.846C63.5746 28.2967 65.1386 29.022 67.292 29.022C69.4906 29.022 71.066 28.2967 72.018 26.846C72.97 25.3727 73.446 23.3667 73.446 20.828C73.446 18.2667 72.97 16.2607 72.018 14.81C71.066 13.3593 69.502 12.634 67.326 12.634C65.15 12.634 63.5746 13.3593 62.6 14.81C61.6253 16.2607 61.138 18.2667 61.138 20.828ZM87.6205 8.724H92.2445V20.454C92.2445 21.0207 92.2332 21.6553 92.2105 22.358C92.1878 23.0607 92.1652 23.752 92.1425 24.432C92.1199 25.0893 92.0972 25.6673 92.0745 26.166C92.0519 26.642 92.0292 26.9707 92.0065 27.152H92.1085L103.329 8.724H109.483V33H104.893V21.338C104.893 20.726 104.904 20.0573 104.927 19.332C104.949 18.584 104.972 17.87 104.995 17.19C105.04 16.51 105.074 15.9207 105.097 15.422C105.142 14.9007 105.176 14.5607 105.199 14.402H105.063L93.8085 33H87.6205V8.724ZM107.171 0.733998C107.057 1.91267 106.729 2.95533 106.185 3.862C105.641 4.746 104.791 5.43733 103.635 5.936C102.479 6.43466 100.926 6.684 98.9765 6.684C96.9819 6.684 95.4179 6.446 94.2845 5.97C93.1739 5.47133 92.3805 4.78 91.9045 3.896C91.4285 3.012 91.1452 1.958 91.0545 0.733998H95.5765C95.6899 1.98066 96.0072 2.808 96.5285 3.216C97.0499 3.624 97.8999 3.828 99.0785 3.828C100.053 3.828 100.847 3.61267 101.459 3.182C102.093 2.72867 102.467 1.91267 102.581 0.733998H107.171ZM139.241 33H134.107V22.528H124.485V33H119.351V8.724H124.485V18.244H134.107V8.724H139.241V33ZM149.089 8.724H153.713V20.454C153.713 21.0207 153.701 21.6553 153.679 22.358C153.656 23.0607 153.633 23.752 153.611 24.432C153.588 25.0893 153.565 25.6673 153.543 26.166C153.52 26.642 153.497 26.9707 153.475 27.152H153.577L164.797 8.724H170.951V33H166.361V21.338C166.361 20.726 166.372 20.0573 166.395 19.332C166.417 18.584 166.44 17.87 166.463 17.19C166.508 16.51 166.542 15.9207 166.565 15.422C166.61 14.9007 166.644 14.5607 166.667 14.402H166.531L155.277 33H149.089V8.724ZM200.709 33H195.575V22.528H185.953V33H180.819V8.724H185.953V18.244H195.575V8.724H200.709V33ZM220.859 12.668C218.887 12.668 217.38 13.4047 216.337 14.878C215.294 16.3513 214.773 18.3687 214.773 20.93C214.773 23.514 215.249 25.52 216.201 26.948C217.176 28.3533 218.728 29.056 220.859 29.056C221.856 29.056 222.842 28.9427 223.817 28.716C224.814 28.4893 225.891 28.172 227.047 27.764V32.082C225.982 32.5127 224.928 32.83 223.885 33.034C222.842 33.238 221.675 33.34 220.383 33.34C217.89 33.34 215.827 32.83 214.195 31.81C212.586 30.7673 211.396 29.3167 210.625 27.458C209.854 25.5767 209.469 23.3893 209.469 20.896C209.469 18.448 209.911 16.2833 210.795 14.402C211.679 12.5207 212.96 11.0473 214.637 9.982C216.337 8.91667 218.411 8.384 220.859 8.384C222.06 8.384 223.262 8.54267 224.463 8.86C225.687 9.15467 226.854 9.56267 227.965 10.084L226.299 14.266C225.392 13.8353 224.474 13.4613 223.545 13.144C222.638 12.8267 221.743 12.668 220.859 12.668ZM255.734 33H249.886L241.08 20.692V33H235.946V8.724H241.08V20.488L249.784 8.724H255.258L246.418 20.386L255.734 33ZM277.387 33L275.619 27.22H266.779L265.011 33H259.469L268.037 8.622H274.327L282.929 33H277.387ZM274.395 22.902L272.627 17.258C272.514 16.8727 272.367 16.3853 272.185 15.796C272.004 15.2067 271.823 14.606 271.641 13.994C271.46 13.382 271.313 12.8493 271.199 12.396C271.086 12.8493 270.927 13.416 270.723 14.096C270.542 14.7533 270.361 15.388 270.179 16C270.021 16.5893 269.896 17.0087 269.805 17.258L268.071 22.902H274.395ZM297.904 23.684L292.226 33H286.514L293.416 22.324C292.759 22.052 292.101 21.6553 291.444 21.134C290.787 20.59 290.243 19.876 289.812 18.992C289.381 18.0853 289.166 16.9747 289.166 15.66C289.166 13.416 289.971 11.7047 291.58 10.526C293.189 9.32467 295.445 8.724 298.346 8.724H306.234V33H301.1V23.684H297.904ZM301.1 12.94H298.55C297.235 12.94 296.204 13.178 295.456 13.654C294.731 14.13 294.368 14.9233 294.368 16.034C294.368 17.0993 294.719 17.9493 295.422 18.584C296.147 19.196 297.235 19.502 298.686 19.502H301.1V12.94ZM353.042 28.92V40.072H348.078V33H330.228V8.724H335.362V28.716H344.304V8.724H349.438V28.92H353.042ZM368.282 8.724C371.41 8.724 373.688 9.404 375.116 10.764C376.567 12.1013 377.292 13.9487 377.292 16.306C377.292 17.7113 376.998 19.0373 376.408 20.284C375.819 21.508 374.833 22.494 373.45 23.242C372.09 23.99 370.232 24.364 367.874 24.364H365.664V33H360.53V8.724H368.282ZM368.01 12.94H365.664V20.148H367.364C368.815 20.148 369.96 19.8647 370.798 19.298C371.66 18.7087 372.09 17.768 372.09 16.476C372.09 14.1187 370.73 12.94 368.01 12.94ZM385.62 33V8.724H400.954V12.974H390.754V18.04H392.794C395.083 18.04 396.953 18.3573 398.404 18.992C399.877 19.6267 400.965 20.4993 401.668 21.61C402.371 22.7207 402.722 23.99 402.722 25.418C402.722 27.8207 401.917 29.6907 400.308 31.028C398.721 32.3427 396.183 33 392.692 33H385.62ZM390.754 28.784H392.488C394.052 28.784 395.276 28.5347 396.16 28.036C397.067 27.5373 397.52 26.6647 397.52 25.418C397.52 24.126 397.033 23.276 396.058 22.868C395.083 22.46 393.757 22.256 392.08 22.256H390.754V28.784Z" fill="#F2F2F2"/>
</svg>