<svg width="25" height="26" viewBox="0 0 25 26" fill="none" xmlns="http://www.w3.org/2000/svg">
<mask id="path-1-inside-1" fill="white">
<path d="M24.7827 23.7293L18.7062 17.6528C20.3362 15.7789 21.3231 13.3338 21.3231 10.6615C21.3231 4.77912 16.5384 0 10.6615 0C4.77912 0 0 4.78466 0 10.6615C0 16.5384 4.78466 21.3231 10.6615 21.3231C13.3339 21.3231 15.7789 20.3362 17.6528 18.7062L23.7293 24.7827C23.8734 24.9268 24.0675 25.0044 24.256 25.0044C24.4445 25.0044 24.6385 24.9324 24.7827 24.7827C25.071 24.4944 25.071 24.0176 24.7827 23.7293ZM1.4914 10.6615C1.4914 5.60521 5.60521 1.49694 10.656 1.49694C15.7123 1.49694 19.8206 5.61075 19.8206 10.6615C19.8206 15.7123 15.7123 19.8317 10.656 19.8317C5.60521 19.8317 1.4914 15.7179 1.4914 10.6615Z"/>
</mask>
<path d="M24.7827 23.7293L18.7062 17.6528C20.3362 15.7789 21.3231 13.3338 21.3231 10.6615C21.3231 4.77912 16.5384 0 10.6615 0C4.77912 0 0 4.78466 0 10.6615C0 16.5384 4.78466 21.3231 10.6615 21.3231C13.3339 21.3231 15.7789 20.3362 17.6528 18.7062L23.7293 24.7827C23.8734 24.9268 24.0675 25.0044 24.256 25.0044C24.4445 25.0044 24.6385 24.9324 24.7827 24.7827C25.071 24.4944 25.071 24.0176 24.7827 23.7293ZM1.4914 10.6615C1.4914 5.60521 5.60521 1.49694 10.656 1.49694C15.7123 1.49694 19.8206 5.61075 19.8206 10.6615C19.8206 15.7123 15.7123 19.8317 10.656 19.8317C5.60521 19.8317 1.4914 15.7179 1.4914 10.6615Z" fill="#535353"/>
<path d="M24.7827 23.7293L23.3685 25.1435L24.7827 23.7293ZM18.7062 17.6528L17.1972 16.3402L15.9728 17.7478L17.292 19.067L18.7062 17.6528ZM17.6528 18.7062L19.067 17.292L17.7478 15.9728L16.3402 17.1972L17.6528 18.7062ZM23.7293 24.7827L22.3151 26.1969L23.7293 24.7827ZM24.7827 24.7827L23.3685 23.3685L23.3551 23.3818L23.342 23.3954L24.7827 24.7827ZM10.656 19.8317V21.8317V19.8317ZM26.1969 22.3151L20.1204 16.2386L17.292 19.067L23.3685 25.1435L26.1969 22.3151ZM20.2152 18.9654C22.1489 16.7423 23.3231 13.8356 23.3231 10.6615H19.3231C19.3231 12.8321 18.5235 14.8154 17.1972 16.3402L20.2152 18.9654ZM23.3231 10.6615C23.3231 3.67387 17.6423 -2 10.6615 -2V2C15.4345 2 19.3231 5.88436 19.3231 10.6615H23.3231ZM10.6615 -2C3.67387 -2 -2 3.68077 -2 10.6615H2C2 5.88856 5.88437 2 10.6615 2V-2ZM-2 10.6615C-2 17.643 3.68009 23.3231 10.6615 23.3231V19.3231C5.88923 19.3231 2 15.4338 2 10.6615H-2ZM10.6615 23.3231C13.8356 23.3231 16.7423 22.1489 18.9654 20.2152L16.3402 17.1972C14.8154 18.5235 12.8321 19.3231 10.6615 19.3231V23.3231ZM16.2386 20.1204L22.3151 26.1969L25.1435 23.3685L19.067 17.292L16.2386 20.1204ZM22.3151 26.1969C22.8322 26.7141 23.5342 27.0044 24.256 27.0044V23.0044C24.6008 23.0044 24.9146 23.1396 25.1435 23.3685L22.3151 26.1969ZM24.256 27.0044C24.9437 27.0044 25.6725 26.7419 26.2233 26.1699L23.342 23.3954C23.6045 23.1228 23.9452 23.0044 24.256 23.0044V27.0044ZM26.1969 26.1969C27.2662 25.1275 27.2662 23.3844 26.1969 22.315L23.3685 25.1435C22.8757 24.6507 22.8757 23.8612 23.3685 23.3685L26.1969 26.1969ZM3.4914 10.6615C3.4914 6.71056 6.70899 3.49694 10.656 3.49694V-0.503061C4.50143 -0.503061 -0.508604 4.49985 -0.508604 10.6615H3.4914ZM10.656 3.49694C14.607 3.49694 17.8206 6.71453 17.8206 10.6615H21.8206C21.8206 4.50697 16.8177 -0.503061 10.656 -0.503061V3.49694ZM17.8206 10.6615C17.8206 14.6101 14.6054 17.8317 10.656 17.8317V21.8317C16.8193 21.8317 21.8206 16.8145 21.8206 10.6615H17.8206ZM10.656 17.8317C6.71056 17.8317 3.4914 14.6141 3.4914 10.6615H-0.508604C-0.508604 16.8216 4.49985 21.8317 10.656 21.8317V17.8317Z" fill="#535353" mask="url(#path-1-inside-1)"/>
</svg>
